{"title":"Beyond.The.Valley.Of.The.Dolls.1970.DVDRip.XviD-VVH","uid":6914229,"size":733308314,"categoryP":"video","categoryS":"movies","magnet":"?xt=urn:btih:28321a8c9bdfde00807bb9ee3e98c8565703f9ae&amp;dn=Beyond.The.Valley.Of.The.Dolls.1970.DVDRip.XviD-VVH&amp;tr=udp%3A%2F%2Ftracker.openbittorrent.com%3A80&amp;tr=udp%3A%2F%2Fopen.demonii.com%3A1337&amp;tr=udp%3A%2F%2Ftracker.coppersurfer.tk%3A6969&amp;tr=udp%3A%2F%2Fexodus.desync.com%3A6969","seeders":11,"leechers":0,"uploader":"TvTeam","files":4,"time":1324968696,"description":". \n &lt;a href=&quot;\nhttp://www.torrenting.com&quot; rel=&quot;nofollow&quot; target=&quot;_NEW&quot;&gt;\nhttp://www.torrenting.com&lt;/a&gt;          :     Once &amp; For all ;)\n\n\n               www . Torrenting . Com \n\n(((((((((((((= Enjoy No RAR releases =))))))))))))))))))))\n\n\n...................................NFO:....................................\n\n.------------------------bOb Post---------------------------\nBeyond the Valley of the Dolls (1970)\n  &lt;a href=&quot; http://www.imdb.com/title/tt0065466/&quot; rel=&quot;nofollow&quot; target=&quot;_NEW&quot;&gt; http://www.imdb.com/title/tt0065466/&lt;/a&gt;\n  &lt;a href=&quot; http://www.allmovie.com/work/beyond-the-valley-of-the-dolls-5299&quot; rel=&quot;nofollow&quot; target=&quot;_NEW&quot;&gt; http://www.allmovie.com/work/beyond-the-valley-of-the-dolls-5299&lt;/a&gt;\n  &lt;a href=&quot; http://en.wikipedia.org/wiki/Beyond_the_Valley_of_the_Dolls&quot; rel=&quot;nofollow&quot; target=&quot;_NEW&quot;&gt; http://en.wikipedia.org/wiki/Beyond_the_Valley_of_the_Dolls&lt;/a&gt;\n-----------------------------------------------------------\nListed on the All Movie Guide's list of Parody/Spoof movies\n     (Major Works, 3 stars or better) &lt;a href=&quot;\nhttp://www.allmovie.com/explore/type/parodyspoof-526&quot; rel=&quot;nofollow&quot; target=&quot;_NEW&quot;&gt;\nhttp://www.allmovie.com/explore/type/parodyspoof-526&lt;/a&gt;\n-----------------------------------------------------------\nPlot:\nAfter nearly a decade as one of America's most successful\nindependent filmmakers, legendary sexploitation auteur Russ\nMeyer first reached out for the brass ring of major studio\nsuccess with this frantic cult favorite, once described by\nMeyer and screenwriter Roger Ebert as &quot;the first\nexploitation-horror-camp-musical.&quot; Kelly McNamara (Dolly\nRead), Casey Anderson (Cynthia Myers), and Petronella\nDanforth (Marcia McBroom) are the three members of an\nall-girl rock band called &quot;the Kelly Affair&quot; who pull up\nstakes for Hollywood in search of stardom; they're\naccompanied by their manager, Harris Allsworth (David\nGurian), who also happens to be Kelly's boyfriend. Kelly has\nan aunt in Hollywood, fashion mogul Susan Lake (Phyllis\nDavis), who takes Kelly under her wing and informs her she's\nentitled to a share of a recent family inheritance, much to\nthe chagrin of Susan's lawyer, the shifty Porter Hall\n(Duncan McLeod). Susan arranges for Kelly and her bandmates\nto attend a wild party thrown by Ronnie &quot;Z-Man&quot; Barzell\n(John La Zar), a flamboyant and very successful record\nproducer; Z-Man renames the band &quot;the Carrie Nations,&quot; signs\nthem to a record deal, and they're one of the biggest acts\nin America practically overnight. However, Harris is pushed\nout of the picture as the band's manager by Z-Man, and as\nKelly's boyfriend by actor and gigolo Lance Rocke (Michael\nBlodgett), sending Harris into a deep depression even after\nhe becomes the new boy-toy of adult film star Ashley St.\nIves (Edy Williams). Meanwhile, Petronella finds love with\nlaw student Emerson Thorne (Harrison Page) until her head is\nturned by heavyweight boxing champion Randy Black (Jim\nIglehart), and Casey explores her sexual boundaries with\nRoxanne (Erica Gavin), a beautiful lesbian designer. This\nnonstop train of decadence, drugs, and betrayal finally\ncomes off the rails during a drug-fueled orgy at Z-Man's\nmansion, which erupts into violence when the rock mogul's\ndarkest secret is revealed. Featuring one-hit wonders the\nStrawberry Alarm Clock, supporting performances by Meyer\nregulars Charles Napier and Haji, and a bit part from future\nblaxploitation icon Pam Grier, Beyond the Valley of the\nDolls proved to be Meyer's biggest box-office success,\nthough after his next film (The Seven Minutes) bombed at the\nbox office, he returned to independent production in 1973.\n-----------------------------------------------------------\nFile Details from MediaInfo:\nBeyond the Valley of the Dolls (1970).avi\n      Format : AVI\n      Format/Info : Audio Video Interleave\n      File size : 699 MiB\n      Duration : 1h 44mn\n      Overall bit rate : 934 Kbps\n      Writing application : VirtualDubMod 1.5.4.1 (build 2178/release)\n      Writing library : VirtualDubMod build 2178/release\n   Video\n      Format : MPEG-4 Visual\n      Format profile : Streaming Video@L1\n      Format settings, BVOP : Yes\n      Format settings, QPel : No\n      Format settings, GMC : No warppoints\n      Format settings, Matrix : Custom\n      Codec ID : XVID\n      Codec ID/Hint : XviD\n      Duration : 1h 44mn\n      Bit rate : 808 Kbps\n      Width : 608 pixels\n      Height : 256 pixels\n      Display aspect ratio : 2.35\n      Frame rate : 25.000 fps\n      Resolution : 24 bits\n      Colorimetry : 4:2:0\n      Scan type : Progressive\n      Bits/(Pixel*Frame) : 0.208\n      Stream size : 605 MiB (86%)\n      Writing library : XviD 50\n   Audio\n      Format : MPEG Audio\n      Format version : Version 1\n      Format profile : Layer 3\n      Codec ID : 55\n      Codec ID/Hint : MP3\n      Duration : 1h 44mn\n      Bit rate mode : Constant\n      Bit rate : 32.0 Kbps\n      Channel(s) : 2 channels\n      Sampling rate : 48.0 KHz\n      Resolution : 16 bits\n      Stream size : 85.0 MiB (12%)\n      Alignment : Aligned on interleaves\n      Interleave, duration : 24 ms (0.60 video frame)\n      Interleave, preload duration : 504 ms\n      Writing library : LAME3.98.2\n      Language : English","torrent":{"xt":"urn:btih:28321a8c9bdfde00807bb9ee3e98c8565703f9ae","amp;dn":"Beyond.The.Valley.Of.The.Dolls.1970.DVDRip.XviD-VVH","amp;tr":["udp%3A%2F%2Ftracker.openbittorrent.com%3A80","udp%3A%2F%2Fopen.demonii.com%3A1337","udp%3A%2F%2Ftracker.coppersurfer.tk%3A6969","udp%3A%2F%2Fexodus.desync.com%3A6969"],"infoHash":"28321a8c9bdfde00807bb9ee3e98c8565703f9ae","infoHashBuffer":{"type":"Buffer","data":[40,50,26,140,155,223,222,0,128,123,185,238,62,152,200,86,87,3,249,174]},"announce":[],"urlList":[]}}